<svg xmlns="http://www.w3.org/2000/svg" xmlns:svg="http://www.w3.org/2000/svg" id="svg6535" width="64" height="64" version="1.1" viewBox="0 0 64 64"><metadata id="metadata6540"/><g id="layer1" transform="translate(180,-470.14793)"><path style="color:#000;clip-rule:nonzero;display:inline;overflow:visible;visibility:visible;opacity:1;isolation:auto;mix-blend-mode:normal;color-interpolation:sRGB;color-interpolation-filters:linearRGB;solid-color:#000;solid-opacity:1;fill:#000;fill-opacity:1;fill-rule:nonzero;stroke:#4a90d9;stroke-width:0;stroke-linecap:round;stroke-linejoin:miter;stroke-miterlimit:4;stroke-dasharray:none;stroke-dashoffset:0;stroke-opacity:1;marker:none;color-rendering:auto;image-rendering:auto;shape-rendering:auto;text-rendering:auto;enable-background:accumulate" id="rect7306" d="M 9.6542969 6.9921875 C 8.6081142 6.96848 7.5705827 7.347386 6.7871094 8.1308594 C 5.2201627 9.697806 5.2783584 12.278358 6.9179688 13.917969 L 10 17 L 10 7.0332031 C 9.8847052 7.0208034 9.7697279 6.9948033 9.6542969 6.9921875 z M 6.1171875 16.185547 C 5.0710043 16.16184 4.0354273 16.538791 3.2519531 17.322266 C 1.6850047 18.889214 1.7432022 21.471718 3.3828125 23.111328 L 10 29.728516 L 10 18.414062 L 9.0390625 17.453125 C 8.2192573 16.63332 7.1633707 16.209254 6.1171875 16.185547 z M 6.8242188 29.621094 C 5.778036 29.597386 4.7424577 29.974339 3.9589844 30.757812 C 2.3920377 32.324759 2.4502333 34.905312 4.0898438 36.544922 L 10 42.455078 L 10 31.142578 L 9.7460938 30.888672 C 8.9262885 30.068867 7.8704014 29.644801 6.8242188 29.621094 z" transform="translate(-180,470.14793)"/><path style="fill:#000;fill-opacity:1;stroke:none;stroke-width:1.00000656px;stroke-linecap:butt;stroke-linejoin:miter;stroke-opacity:1" id="path838" d="M 54 10 L 54 49 L 62 49 L 62 34 L 54 10 z" transform="translate(-180,470.14793)"/><path style="opacity:1;fill:#000;fill-opacity:1;stroke:none;stroke-width:1.95433986;stroke-linecap:round;stroke-linejoin:round;stroke-miterlimit:4;stroke-dasharray:none;stroke-opacity:1;paint-order:normal" id="rect869" d="M 10 7 L 10 57 L 12 57 L 12 7 L 10 7 z M 52 7 L 52 57 L 54 57 L 54 7 L 52 7 z" transform="translate(-180,470.14793)"/><path style="color:#000;font-style:normal;font-variant:normal;font-weight:400;font-stretch:normal;font-size:medium;line-height:normal;font-family:sans-serif;font-variant-ligatures:normal;font-variant-position:normal;font-variant-caps:normal;font-variant-numeric:normal;font-variant-alternates:normal;font-feature-settings:normal;text-indent:0;text-align:start;text-decoration:none;text-decoration-line:none;text-decoration-style:solid;text-decoration-color:#000;letter-spacing:normal;word-spacing:normal;text-transform:none;writing-mode:lr-tb;direction:ltr;text-orientation:mixed;dominant-baseline:auto;baseline-shift:baseline;text-anchor:start;white-space:normal;shape-padding:0;clip-rule:nonzero;display:inline;overflow:visible;visibility:visible;opacity:1;isolation:auto;mix-blend-mode:normal;color-interpolation:sRGB;color-interpolation-filters:linearRGB;solid-color:#000;solid-opacity:1;vector-effect:none;fill:#000;fill-opacity:1;fill-rule:nonzero;stroke:none;stroke-width:3;stroke-linecap:round;stroke-linejoin:miter;stroke-miterlimit:4;stroke-dasharray:none;stroke-dashoffset:0;stroke-opacity:1;marker:none;color-rendering:auto;image-rendering:auto;shape-rendering:auto;text-rendering:auto;enable-background:accumulate" id="ellipse7314" d="m -148,493.14844 c -4.95279,0 -9,4.0472 -9,9 0,4.95279 4.04721,9 9,9 4.95279,0 9,-4.04721 9,-9 0,-4.9528 -4.04721,-9 -9,-9 z m 0,3 c 3.33147,0 6,2.66852 6,6 0,3.33148 -2.66853,6 -6,6 -3.33147,0 -6,-2.66852 -6,-6 0,-3.33148 2.66853,-6 6,-6 z"/><path style="opacity:1;fill:#000;fill-opacity:1;stroke:none;stroke-width:4;stroke-linecap:round;stroke-linejoin:round;stroke-miterlimit:4;stroke-dasharray:none;stroke-opacity:1;paint-order:normal" id="path831" d="m -148,498.14793 c -2.20914,0 -4,1.79086 -4,4 0.001,1.06041 0.42341,2.07695 1.17383,2.82617 l -0.002,0.002 22.17192,22.17183 H -122 c 2.216,0 4,-1.784 4,-4 v -8 c 0,-2.216 -1.784,-4 -4,-4 h -11.34375 l -11.78711,-11.78711 -0.041,-0.041 -0.002,0.002 c -0.74917,-0.75046 -1.76571,-1.17267 -2.82612,-1.17387 z"/><path style="color:#000;display:inline;overflow:visible;visibility:visible;fill:#000;fill-opacity:1;fill-rule:nonzero;stroke:none;stroke-width:6;marker:none;enable-background:accumulate" id="path7413" d="m -159,494.64792 -8,7.5 8,7.5 v -5 h 3.5 v -5 h -3.5 z"/><g id="g1107" transform="translate(-64)"><g id="g1080" transform="rotate(-45,-191.43501,474.81355)" style="fill:#000;fill-opacity:1"><rect id="rect1074" width="8" height="34" x="-185" y="490.148" rx="4" ry="4.185" style="color:#000;clip-rule:nonzero;display:inline;overflow:visible;visibility:visible;opacity:1;isolation:auto;mix-blend-mode:normal;color-interpolation:sRGB;color-interpolation-filters:linearRGB;solid-color:#000;solid-opacity:1;fill:#000;fill-opacity:1;fill-rule:nonzero;stroke:#4a90d9;stroke-width:0;stroke-linecap:round;stroke-linejoin:miter;stroke-miterlimit:4;stroke-dasharray:none;stroke-dashoffset:0;stroke-opacity:1;marker:none;color-rendering:auto;image-rendering:auto;shape-rendering:auto;text-rendering:auto;enable-background:accumulate"/><rect style="color:#000;clip-rule:nonzero;display:inline;overflow:visible;visibility:visible;opacity:1;isolation:auto;mix-blend-mode:normal;color-interpolation:sRGB;color-interpolation-filters:linearRGB;solid-color:#000;solid-opacity:1;fill:#000;fill-opacity:1;fill-rule:nonzero;stroke:#4a90d9;stroke-width:0;stroke-linecap:round;stroke-linejoin:miter;stroke-miterlimit:4;stroke-dasharray:none;stroke-dashoffset:0;stroke-opacity:1;marker:none;color-rendering:auto;image-rendering:auto;shape-rendering:auto;text-rendering:auto;enable-background:accumulate" id="rect1076" width="8" height="30" x="-194" y="494.148" rx="4" ry="4.185"/><rect id="rect1078" width="8" height="20" x="-203" y="504.148" rx="4" ry="4.185" style="color:#000;clip-rule:nonzero;display:inline;overflow:visible;visibility:visible;opacity:1;isolation:auto;mix-blend-mode:normal;color-interpolation:sRGB;color-interpolation-filters:linearRGB;solid-color:#000;solid-opacity:1;fill:#000;fill-opacity:1;fill-rule:nonzero;stroke:#4a90d9;stroke-width:0;stroke-linecap:round;stroke-linejoin:miter;stroke-miterlimit:4;stroke-dasharray:none;stroke-dashoffset:0;stroke-opacity:1;marker:none;color-rendering:auto;image-rendering:auto;shape-rendering:auto;text-rendering:auto;enable-background:accumulate"/></g><path style="fill:#000;fill-opacity:1;stroke:none;stroke-width:1.00000656px;stroke-linecap:butt;stroke-linejoin:miter;stroke-opacity:1" id="path1082" d="m -134,480.14793 v 39 h 16.00021 v -15 l -8.00013,-24 z"/><rect style="opacity:1;fill:#1a5fb4;fill-opacity:1;stroke:none;stroke-width:1.95433986;stroke-linecap:round;stroke-linejoin:round;stroke-miterlimit:4;stroke-dasharray:none;stroke-opacity:1;paint-order:normal" id="rect1084" width="44" height="50" x="-170" y="477.148"/><rect id="rect1086" width="40" height="50" x="-168" y="477.148" style="opacity:1;fill:#26a269;fill-opacity:1;stroke:none;stroke-width:1.86338997;stroke-linecap:round;stroke-linejoin:round;stroke-miterlimit:4;stroke-dasharray:none;stroke-opacity:1;paint-order:normal"/><ellipse id="ellipse1088" cx="-148" cy="502.148" rx="7.5" ry="7.5" style="color:#000;display:inline;overflow:visible;visibility:visible;fill:none;fill-opacity:1;stroke:#000;stroke-width:3;stroke-linecap:round;stroke-linejoin:miter;stroke-miterlimit:4;stroke-dasharray:none;stroke-dashoffset:0;stroke-opacity:1;marker:none;enable-background:accumulate"/><path style="opacity:1;fill:#000;fill-opacity:1;stroke:none;stroke-width:4;stroke-linecap:round;stroke-linejoin:round;stroke-miterlimit:4;stroke-dasharray:none;stroke-opacity:1;paint-order:normal" id="path1090" d="m -148,498.14793 c -2.20914,0 -4,1.79086 -4,4 0.001,1.06041 0.42341,2.07695 1.17383,2.82617 l -0.002,0.002 22.17192,22.17183 H -122 c 2.216,0 4,-1.784 4,-4 v -8 c 0,-2.216 -1.784,-4 -4,-4 h -11.34375 l -11.78711,-11.78711 -0.041,-0.041 -0.002,0.002 c -0.74917,-0.75046 -1.76571,-1.17267 -2.82612,-1.17387 z"/><path style="color:#000;display:inline;overflow:visible;visibility:visible;fill:#000;fill-opacity:1;fill-rule:nonzero;stroke:none;stroke-width:6;marker:none;enable-background:accumulate" id="path1092" d="m -159,494.64792 -8,7.5 8,7.5 v -5 h 3.5 v -5 h -3.5 z"/><path id="path1094" d="m -137,494.64792 8,7.5 -8,7.5 v -5 h -3.5 v -5 h 3.5 z" style="color:#000;display:inline;overflow:visible;visibility:visible;fill:#000;fill-opacity:1;fill-rule:nonzero;stroke:none;stroke-width:6;marker:none;enable-background:accumulate"/></g></g></svg>