<svg xmlns="http://www.w3.org/2000/svg" xmlns:svg="http://www.w3.org/2000/svg" id="svg4" width="16" height="16" version="1.1"><metadata id="metadata10"/><path style="line-height:normal;font-variant-ligatures:normal;font-variant-position:normal;font-variant-caps:normal;font-variant-numeric:normal;font-variant-alternates:normal;font-feature-settings:normal;text-indent:0;text-align:start;text-decoration:none;text-decoration-line:none;text-decoration-style:solid;text-decoration-color:#000;text-transform:none;text-orientation:mixed;white-space:normal;shape-padding:0;isolation:auto;mix-blend-mode:normal;solid-color:#000;solid-opacity:1;marker:none" id="path2" d="M 4.1972656 0 C 2.9868777 0.01088842 2.0086867 0.9907661 2 2.2011719 L 2 13.800781 C 2 14.999781 2.9952656 16 4.1972656 16 L 11.804688 16 C 13.015135 15.98964 13.992393 15.009296 14 13.798828 L 14 2.1992188 C 14 1.0002185 13.006687 -2.9605947e-16 11.804688 0 L 4.1972656 0 z M 4.1992188 2 L 11.800781 2 C 11.911581 2 12 2.0884187 12 2.1992188 L 12 11.800781 C 12 11.911581 11.911581 12 11.800781 12 L 4.1992188 12 C 4.0884187 12 4 11.911581 4 11.800781 L 4 2.1992188 C 4 2.0884187 4.0884187 2 4.1992188 2 z M 8 12.529297 L 9.9023438 14.431641 C 9.9625935 14.491891 10 14.573683 10 14.666016 L 10 15 L 9.6660156 15 C 9.5736826 15 9.4918906 14.962594 9.4316406 14.902344 L 8 13.470703 L 6.5683594 14.902344 C 6.5081094 14.962594 6.4263177 15 6.3339844 15 L 6 15 L 6 14.666016 C 6 14.573686 6.0374063 14.491891 6.0976562 14.431641 L 8 12.529297 z"/></svg>