<svg xmlns="http://www.w3.org/2000/svg" xmlns:svg="http://www.w3.org/2000/svg" id="svg10539" width="16" height="16" version="1.1" viewBox="0 0 4.233 4.233"><metadata id="metadata10536"/><g id="layer1" transform="matrix(-1,0,0,1,-40.972619,-342.50834)"><path id="rect10509" d="M 3,2 C 1.9093002,2 1,2.9093039 1,4 v 8 c 0,1.090696 0.9093002,2 2,2 h 10 c 1.090704,0 2,-0.909304 2,-2 V 4 C 15,2.9093039 14.090704,2 13,2 Z m 0,2 h 3 v 8 H 3 Z m 4,0 h 6 v 8 H 7 Z" transform="matrix(0.26458333,0,0,0.26458333,-45.205952,342.50834)" style="color:#bebebe;display:inline;overflow:visible;visibility:visible;opacity:1;fill:#241f31;fill-opacity:1;stroke:none;stroke-width:1;marker:none"/><rect style="color:#bebebe;display:inline;overflow:visible;visibility:visible;opacity:.35;fill:#241f31;fill-opacity:1;stroke:none;stroke-width:.264583;marker:none" id="rect10511" width="2.117" height=".794" x="-345.683" y="43.618" transform="matrix(0,-1,-1,0,0,0)"/></g></svg>