<svg xmlns="http://www.w3.org/2000/svg" xmlns:svg="http://www.w3.org/2000/svg" id="svg8" width="16" height="16" version="1.1"><metadata id="metadata14"/><g id="g6" fill="#474747" color="#bebebe" transform="rotate(-90,8,8)"><path id="path2" d="M 9.625,11 H 6.375 A 0.374,0.374 0 0 0 6,11.375 v 1.25 C 6,12.833 6.167,13 6.375,13 h 3.25 A 0.374,0.374 0 0 0 10,12.625 v -1.25 A 0.374,0.374 0 0 0 9.625,11 Z m 0,-11 H 6.375 A 0.374,0.374 0 0 0 6,0.375 v 1.25 C 6,1.833 6.167,2 6.375,2 h 3.25 A 0.374,0.374 0 0 0 10,1.625 V 0.375 A 0.374,0.374 0 0 0 9.625,0 Z m 0,14 H 6.375 A 0.374,0.374 0 0 0 6,14.375 v 1.25 C 6,15.833 6.167,16 6.375,16 h 3.25 A 0.374,0.374 0 0 0 10,15.625 v -1.25 A 0.374,0.374 0 0 0 9.625,14 Z m 0,-11 H 6.375 A 0.374,0.374 0 0 0 6,3.375 v 1.25 C 6,4.833 6.167,5 6.375,5 h 3.25 A 0.374,0.374 0 0 0 10,4.625 V 3.375 A 0.374,0.374 0 0 0 9.625,3 Z" opacity=".35" overflow="visible" style="marker:none"/><path id="path4" d="M 14,7 H 2 v 2 h 12 z" overflow="visible" style="marker:none"/></g></svg>