<svg xmlns="http://www.w3.org/2000/svg" xmlns:svg="http://www.w3.org/2000/svg" id="svg59656" width="16" height="16" version="1.1" viewBox="0 0 4.233 4.233"><metadata id="metadata59653"/><g id="layer1" transform="translate(-414.07291,-67.20417)"><g style="fill:#241f31" id="g16" fill="#474747" transform="matrix(0.26458333,0,0,0.26458333,414.07293,67.204165)"><path style="marker:none;fill:#241f31" id="path10" d="M 7.453125 2 L 4.5214844 4.9609375 L 8 8.4394531 L 8 2 L 7.453125 2 z M 11 3 L 11 5 C 11.607 5.789 12 6.76 12 8 C 12 9.241 11.607 10.22 11 11 L 11 11.439453 L 12.287109 12.726562 C 13.34008 11.684021 14 9.952001 14 8 C 14 5.834 13.261 3.98 12 3 L 11 3 z M 2 5 L 2 11 L 4.484375 11 L 7.5253906 14 L 8 14 L 8 10.5625 L 2.4375 5 L 2 5 z M 9 5 L 9 9.4394531 L 10.226562 10.666016 C 10.734406 9.9178051 11 9.0952939 11 8 C 11 6.743 10.688 5.784 10 5 L 9 5 z" transform="translate(-7.5590552e-5,1.8897638e-5)"/></g><path id="path60" d="m 417.90147,71.336914 0.28098,-0.280987 -3.70443,-3.703902 -0.28072,0.280723 z" style="fill:#241f31;stroke:none;stroke-width:.264583px;stroke-linecap:butt;stroke-linejoin:miter;stroke-opacity:1;fill-opacity:1"/></g></svg>